<?xml version="1.0" encoding="UTF-8" standalone="no"?>
<svg
   xmlns:dc="http://purl.org/dc/elements/1.1/"
   xmlns:cc="http://creativecommons.org/ns#"
   xmlns:rdf="http://www.w3.org/1999/02/22-rdf-syntax-ns#"
   xmlns:svg="http://www.w3.org/2000/svg"
   xmlns="http://www.w3.org/2000/svg"
   xmlns:sodipodi="http://sodipodi.sourceforge.net/DTD/sodipodi-0.dtd"
   xmlns:inkscape="http://www.inkscape.org/namespaces/inkscape"
   width="81.721779mm"
   height="49.137074mm"
   viewBox="0 0 81.721779 49.137073"
   version="1.1"
   id="svg8"
   inkscape:version="1.0 (4035a4fb49, 2020-05-01)"
   sodipodi:docname="P1.svg">
  <defs
     id="defs2" />
  <sodipodi:namedview
     id="base"
     pagecolor="#ffffff"
     bordercolor="#666666"
     borderopacity="1.0"
     inkscape:pageopacity="0.0"
     inkscape:pageshadow="2"
     inkscape:zoom="1.8088488"
     inkscape:cx="106.37461"
     inkscape:cy="118.25356"
     inkscape:document-units="mm"
     inkscape:current-layer="layer1"
     inkscape:document-rotation="0"
     showgrid="false"
     inkscape:window-width="1759"
     inkscape:window-height="1051"
     inkscape:window-x="-9"
     inkscape:window-y="620"
     inkscape:window-maximized="1" />
  <metadata
     id="metadata5">
    <rdf:RDF>
      <cc:Work
         rdf:about="">
        <dc:format>image/svg+xml</dc:format>
        <dc:type
           rdf:resource="http://purl.org/dc/dcmitype/StillImage" />
        <dc:title />
      </cc:Work>
    </rdf:RDF>
  </metadata>
  <g
     inkscape:label="Layer 1"
     inkscape:groupmode="layer"
     id="layer1"
     transform="translate(-171.98909,-139.12704)">
    <path
       transform="matrix(0.26458333,0,0,0.26458333,171.98909,139.12704)"
       d="m 223.63281,6.6835938 c -0.23176,0.012098 -0.46898,0.038235 -0.71093,0.076172 -1.55127,0.3072756 -2.75535,1.1999515 -3.56836,2.5429688 -0.971,1.5596976 -1.86885,3.1708566 -2.76758,4.7832036 -0.34885,0.630538 -0.76055,1.271882 -1.21485,2.046874 -0.54478,-0.61833 -0.85356,-0.953691 -1.17187,-1.351562 -0.88267,-1.141153 -1.71313,-2.355002 -2.6582,-3.486328 -1.75556,-2.2197545 -4.70204,-2.654077 -6.94141,-1.023438 -2.18672,1.558413 -2.59761,4.247036 -1.07227,6.63086 0.50193,0.752995 0.9845,1.379816 1.53907,2.060547 1.73593,2.094916 3.48281,4.252825 5.29101,6.40039 -0.14816,0.279307 -0.28735,0.621273 -0.43554,0.900391 -1.68609,3.527131 -3.43501,7.062627 -5.19336,10.537109 -0.93181,1.809487 -0.97847,3.545109 0.30468,5.199219 1.26339,1.529235 2.99415,1.961598 4.97266,1.523438 1.72872,-0.399232 2.9019,-1.479398 3.68555,-3.009766 1.13265,-2.160832 2.24621,-4.446676 3.30664,-6.660156 0.30614,-0.495837 0.54932,-0.980727 0.85547,-1.476563 2.40321,1.862362 4.66323,3.61985 6.9746,5.304688 0.87659,0.694223 1.92068,1.233231 2.98829,1.513671 2.20739,0.613493 4.64836,-0.536228 5.61328,-2.542968 1.02731,-2.016378 0.44634,-4.100176 -1.59571,-5.699219 -0.44318,-0.378369 -0.93966,-0.686085 -1.38281,-1.064453 -2.69216,-2.07292 -5.33132,-4.216191 -8.0957,-6.341797 0.60242,-1.054072 1.03602,-1.955515 1.54297,-2.802734 1.41543,-2.397128 2.82082,-4.856865 4.16406,-7.306641 0.87916,-1.737222 0.86498,-3.4609619 -0.39844,-4.9902344 -1.04226,-1.2919795 -2.40891,-1.8483596 -4.03125,-1.7636718 z m -39.18554,4.2910152 c -1.00995,0.02688 -2.07398,0.155251 -3.19141,0.398438 -10.31989,2.321877 -15.62733,11.727005 -13.94336,22.466797 1.78552,10.979792 11.44322,19.125939 24.22656,14.5625 2.54419,-0.910715 4.75058,-2.344888 6.25782,-4.564453 2.07666,-3.076574 0.2938,-6.699645 -3.35938,-7.150391 -1.69202,-0.182551 -2.98806,0.533286 -4.29688,1.570312 -3.58132,2.864656 -9.50296,2.640297 -10.89843,-1.363281 2.62254,-0.411212 4.94359,-0.710197 7.18164,-1.125 16.01192,-2.690681 13.17267,-25.1981 -1.97656,-24.794922 z m -30.94532,1.488282 c -2.17194,0.0189 -3.81247,0.981654 -4.77734,2.988281 -0.19124,0.413783 -0.36183,0.951553 -0.5957,1.5 -0.45665,-0.05632 -0.90471,-0.05097 -1.35157,-0.04492 -8.44773,-0.0189 -16.72821,6.333695 -17.4707,15.470703 -0.59543,6.810822 2.92786,15.407615 10.61524,16.697266 5.38446,0.883086 10.9157,-2.606369 14.0625,-7.833985 0.27061,2.13275 0.71791,4.173877 1.05078,6.296875 1.41966,9.053896 -6.20409,6.538847 -12.42969,5.595703 -1.04799,-0.155338 -2.11615,-0.436044 -3.13477,-0.404296 -2.3066,-0.02268 -4.33747,1.702893 -4.7539,3.943359 -0.36359,2.168277 0.90589,4.144554 3.21484,4.998047 5.44932,1.704567 15.65326,2.728643 21.39063,-0.666016 5.3492,-3.013946 6.44584,-9.072324 5.46679,-15.316406 -1.64224,-9.658734 -3.77438,-19.177483 -6.21875,-28.646484 -0.64142,-2.458432 -2.16065,-4.394327 -5.06836,-4.578125 z m -81.494138,6.160156 c -1.144795,-0.01343 -2.325371,0.07203 -3.535156,0.261719 -1.998085,0.313322 -3.875157,0.991949 -5.77539,1.929687 -0.887622,0.458986 -1.74092,0.721444 -2.765625,0.306641 -1.087181,-0.405317 -2.284488,-0.281585 -3.41211,0.279297 -2.255282,1.12131 -3.229603,3.065271 -2.716797,5.927734 1.881222,10.772863 2.680869,21.586216 3.927735,32.394531 0.345071,3.016706 0.690371,6.034084 1.21289,8.958985 0.473575,2.612749 2.818858,4.100666 5.388672,3.761718 2.579641,-0.276661 4.292384,-2.400696 4.265625,-5.019531 -0.05518,-0.759042 -0.161616,-1.445998 -0.216797,-2.205078 -0.143244,-1.321058 -0.286666,-2.642068 -0.478515,-4.275391 0.952516,0.362457 1.625406,0.576779 2.308594,0.853516 4.026633,1.607773 8.125772,3.267212 12.214843,4.865234 1.024744,0.415106 2.155185,0.686145 3.183594,0.716797 2.138872,0.176504 4.181259,-1.487754 4.761719,-3.498047 0.527773,-1.938028 -0.440478,-4.025397 -2.394532,-5.0625 -0.6305,-0.34885 -1.312929,-0.625544 -1.986328,-0.839843 -1.914297,-0.787167 -5.083425,-1.826153 -7.195312,-2.646485 2.524611,-1.03559 4.993269,-2.829162 6.980469,-5.251953 4.319697,-5.091666 5.048403,-12.691876 3.070312,-18.779297 C 86.300834,23.638857 80.021382,18.717036 72.007812,18.623047 Z m 112.109378,1.714844 c 4.9501,-0.05925 4.8497,5.692658 -1.1211,6.628906 -1.93564,0.303496 -3.828,0.471936 -5.8457,0.660156 0.31257,-3.311735 2.71397,-6.758475 5.9082,-7.195312 0.37465,-0.05874 0.72859,-0.0898 1.0586,-0.09375 z m -72.35547,2.033203 c -1.00995,0.02688 -2.07398,0.155251 -3.19141,0.398437 -10.319884,2.321877 -15.627325,11.727005 -13.943357,22.466797 1.785525,10.979754 11.445167,19.125902 24.228517,14.5625 2.54419,-0.910715 4.75054,-2.344888 6.25781,-4.564453 2.07662,-3.076573 0.29189,-6.697653 -3.36133,-7.148437 -1.69202,-0.182552 -2.98806,0.531332 -4.29687,1.568359 -3.58133,2.864655 -9.50105,2.64225 -10.89649,-1.361328 2.6225,-0.411213 4.94164,-0.71215 7.17969,-1.126953 16.01189,-2.690681 13.17267,-25.1981 -1.97656,-24.794922 z m 33.70117,3.96289 c 1.66832,-0.198611 1.62137,1.193257 1.33203,2.917969 -0.22526,1.826684 -0.5229,3.600848 -1.08008,5.351563 -1.95193,6.319785 -6.67786,5.972495 -6.62109,-1.009766 0.22072,-3.489298 2.24165,-6.108436 5.54492,-7.074219 0.31266,-0.09701 0.58589,-0.157174 0.82422,-0.185547 z m -74.271484,1.705078 c 8.374241,0.04005 12.302866,12.6984 5.324219,18.886719 -2.588372,2.26114 -6.143701,3.648853 -9.482422,3.980469 -0.959509,-6.119206 -1.596764,-12.223205 -2.476562,-19.058594 -0.22526,-1.436145 1.163853,-2.359042 2.791015,-2.998047 1.358873,-0.564935 2.64743,-0.816268 3.84375,-0.810547 z m 40.240234,3.697266 c 4.95007,-0.05928 4.85162,5.690741 -1.11914,6.626953 -1.93565,0.303496 -3.82996,0.471936 -5.84766,0.660157 0.31257,-3.311736 2.71589,-6.758475 5.91016,-7.195313 0.37464,-0.05875 0.72664,-0.08785 1.05664,-0.0918 z M 241.4082,108.38281 c -2.49038,-0.0552 -4.76442,1.73644 -4.88476,4.42188 -0.88214,14.50779 0.47458,32.91247 1.65625,42.52343 0.11187,0.68913 0.22755,1.4414 0.46093,2.0586 0.85732,2.28408 3.09448,3.45856 5.53126,2.9707 2.37811,-0.42043 3.89617,-2.2393 3.8496,-4.70703 0.0151,-0.69793 -0.0372,-1.45294 -0.0859,-2.14648 -1.18281,-12.33529 -2.50378,-26.62593 -1.64258,-38.72461 0.23773,-2.93122 -0.34422,-4.91712 -3.14844,-6.05078 -0.57388,-0.22106 -1.16162,-0.33297 -1.73633,-0.34571 z m -197.710934,8.69141 c -1.023141,-0.0402 -2.179962,0.22368 -3.416016,0.89258 -6.979465,3.4679 -17.952871,6.89783 -26.208984,4.8164 -0.319748,-0.0408 -0.639312,-0.0799 -0.958985,-0.12109 -2.791823,-0.0575 -5.2992824,2.14534 -5.4374998,4.68945 -0.2861102,5.84912 8.1547518,5.13042 12.4277348,5.52735 0.06198,0.8827 0.117954,1.70181 0.175781,2.52148 0.57891,9.14638 1.09106,18.23358 1.728515,27.3125 0.225638,3.21547 0.510552,9.97558 1.736329,12.99414 0.987893,2.33828 3.542783,3.55254 6.029297,2.87109 2.297385,-0.66822 3.670305,-2.79164 3.367187,-5.30468 -1.339843,-9.15636 -1.744189,-18.5059 -2.599609,-29.78711 -0.27893,-3.97206 -0.368379,-7.95638 -0.539063,-12.18945 3.662287,-1.08084 10.658643,-2.52248 14.849609,-5.09766 5.188198,-3.0927 3.279312,-8.95087 -1.154296,-9.125 z m 49.734375,0.82031 c -2.559326,-0.007 -4.701989,1.95235 -4.890625,4.79297 -0.421191,5.73188 -0.712438,11.51833 -0.917969,17.61523 -0.689084,0.1115 -1.188982,0.209 -1.693359,0.24415 -3.134703,0.47357 -8.465799,0.34102 -8.583985,4.9746 -0.04309,2.09386 1.219279,3.84318 3.416016,4.44922 0.837354,0.19465 1.788688,0.19223 2.675781,0.19336 1.328466,-0.0302 2.584485,-0.18286 4.097656,-0.28906 0.129638,4.55278 0.132976,9.11436 0.462891,15.61719 0.252472,3.59372 3.468143,6.98058 7.392578,5.12109 2.149153,-0.97459 2.709758,-2.91412 2.537109,-5.37305 -0.549883,-6.93086 -0.260031,-11.8309 -0.398437,-16.50976 1.576214,-0.11074 2.967523,-0.14507 4.287113,-0.30078 0.81524,-0.12057 1.69271,-0.24603 2.49023,-0.61914 1.84721,-0.76332 2.98496,-2.6169 2.78906,-4.50391 -0.36056,-3.33275 -3.46238,-4.19133 -6.50195,-4.16797 -0.950173,0.003 -1.892503,0.13314 -3.027344,0.21289 0.186709,-5.46198 0.757911,-10.8875 0.742188,-16.52539 0.07068,-2.60266 -1.44575,-4.33361 -3.759766,-4.80469 -0.378156,-0.0843 -0.751569,-0.12601 -1.117187,-0.12695 z m 123.843749,3.53906 c -4.46981,-0.0425 -9.30026,2.02338 -13.2207,6.19532 -1.00101,1.084 -1.86123,2.34804 -2.5293,3.66211 -1.33606,2.62817 -0.38972,5.28703 2.10352,6.50586 2.4932,1.21885 5.40755,0.31587 6.68945,-2.18165 3.44859,-6.83145 10.37997,-7.38079 11.16797,3.8418 -4.01635,-0.35149 -8.62763,-0.15546 -12.29102,1.8125 -9.16505,4.82517 -9.13803,19.651 2.37891,21.25 4.5428,0.63145 8.7184,-0.35871 12.60742,-2.72265 1.09947,-0.58406 2.02747,-0.90252 3.31055,-0.67579 2.24655,0.4125 4.56726,-0.82915 5.17773,-2.96289 0.85489,-3.16463 0.40684,-5.92027 -0.0801,-9.24414 -0.96582,-5.63448 -1.23458,-13.97832 -4.25,-19.02539 -2.48504,-4.26068 -6.59464,-6.41254 -11.06445,-6.45508 z m -26.00977,0.37696 c -2.71105,0.19049 -4.65024,2.35448 -4.46874,4.93945 0.24453,2.58059 2.5925,4.44336 5.42968,4.24414 2.71106,-0.19049 4.71333,-2.3589 4.46875,-4.93945 -0.24,-2.51751 -2.65551,-4.43894 -5.42969,-4.24414 z m -21.31835,5.26367 c -3.904,-0.0721 -8.22446,1.95336 -12.1543,6.78125 -0.25134,-0.86941 -0.42196,-1.49111 -0.5293,-2.11719 -0.69029,-2.61263 -3.1467,-4.21494 -5.64648,-3.72266 -2.75203,0.50998 -4.48994,2.84906 -4.04297,5.60547 1.48917,8.57568 2.54233,17.24582 5.35547,25.72852 0.40373,1.23885 0.64885,2.93229 1.22851,3.96875 1.16368,2.13585 4.10795,2.56376 6.39649,1.76953 2.28846,-0.7943 3.47222,-2.90486 3.10156,-5.47656 -0.10734,-0.62604 -0.28243,-1.31054 -0.51563,-1.92774 -1.74561,-5.00953 -3.62068,-15.46043 0.5625,-19.04882 5.56245,-4.69898 8.66794,0.72242 8.625,6.42773 -0.0609,1.84169 0.67081,3.24785 2.32227,4.20898 3.03746,1.75087 7.0842,-0.18099 7.4668,-3.75586 1.21548,-10.52179 -4.71685,-18.30366 -12.16992,-18.4414 z m -40.51563,2.25781 c -4.57823,-0.12208 -9.17665,2.16473 -12.64453,6.57813 -5.88095,7.38243 -7.04201,21.5292 1.51953,27.96093 10.11791,7.84309 24.12547,1.60238 26.78516,-11.95312 1.0882,-6.15889 -1.1827,-13.22351 -5.5586,-17.79492 -2.9927,-3.14397 -6.54072,-4.69607 -10.10156,-4.79102 z m -63.599609,5.28516 c -0.342371,-0.0117 -0.692485,0.01 -1.044922,0.0664 -3.13028,0.53655 -4.834593,3.31587 -3.988281,7.24805 0.56863,2.68452 2.235424,9.28404 1.716797,13.62891 -0.996283,8.36999 -10.157626,9.64781 -12.236328,0.79687 -1.1472,-4.60804 -0.554225,-10.60584 0.494141,-13.7207 1.323892,-3.70443 -0.552149,-6.04343 -2.451172,-6.92383 -2.812876,-1.25975 -6.552461,0.52351 -7.773438,4.79102 -3.358866,10.81682 -2.327387,29.11761 12.173828,31.71093 12.70938,2.33896 20.949784,-8.44026 20.472656,-19.74804 -0.251338,-4.48086 -1.159319,-9.29539 -2.199218,-13.27735 -0.694025,-2.77868 -2.767467,-4.49018 -5.164063,-4.57226 z m 125.660159,0.35547 c -2.64356,0.24907 -4.76137,2.55198 -4.43164,5.44336 0.33411,2.95441 0.41579,5.92816 1.24804,17.78125 0.2177,2.20225 1.71497,3.68069 3.89844,4.09765 3.20995,0.59826 6.02367,-1.75309 5.84766,-5.16211 -0.18822,-4.48524 -0.8591,-13.11978 -1.23633,-17.59179 -0.27099,-2.95885 -2.55646,-4.8262 -5.32617,-4.56836 z m -62.56836,4.14062 c 5.57038,-0.0745 8.02934,6.97562 6.62695,12.26953 -1.81481,7.54046 -11.71009,9.18624 -13.69922,0.70899 -1.19588,-5.30155 2.64557,-12.85776 7.07227,-12.97852 z m 88.32617,8.82227 c 1.79612,-0.008 3.62333,0.68363 4.47461,2.14843 -0.8572,1.32737 -2.19028,2.18146 -3.60938,2.72461 -3.51851,1.32416 -5.5076,0.0695 -5.49218,-1.51562 0.0608,-2.17828 2.31765,-3.34676 4.62695,-3.35742 z"
       style="font-style:normal;font-variant:normal;font-weight:normal;font-stretch:normal;font-size:16.7226px;line-height:1.25;font-family:'Om Botak';-inkscape-font-specification:'Om Botak';fill:#ff4b81;fill-opacity:1;stroke-width:3.42658;stroke-miterlimit:4;stroke-dasharray:none"
       id="path851" />
  </g>
</svg>
