<?xml version="1.0" encoding="UTF-8" standalone="no"?>
<svg
   xmlns:dc="http://purl.org/dc/elements/1.1/"
   xmlns:cc="http://creativecommons.org/ns#"
   xmlns:rdf="http://www.w3.org/1999/02/22-rdf-syntax-ns#"
   xmlns:svg="http://www.w3.org/2000/svg"
   xmlns="http://www.w3.org/2000/svg"
   xmlns:sodipodi="http://sodipodi.sourceforge.net/DTD/sodipodi-0.dtd"
   xmlns:inkscape="http://www.inkscape.org/namespaces/inkscape"
   sodipodi:docname="P4.svg"
   inkscape:version="1.0 (4035a4fb49, 2020-05-01)"
   id="svg8"
   version="1.1"
   viewBox="0 0 22.260699 26.433792"
   height="26.433792mm"
   width="22.260698mm">
  <defs
     id="defs2" />
  <sodipodi:namedview
     inkscape:window-maximized="0"
     inkscape:window-y="629"
     inkscape:window-x="229"
     inkscape:window-height="1080"
     inkscape:window-width="1512"
     showgrid="false"
     inkscape:document-rotation="0"
     inkscape:current-layer="layer1"
     inkscape:document-units="mm"
     inkscape:cy="85.229958"
     inkscape:cx="72.31682"
     inkscape:zoom="2.8"
     inkscape:pageshadow="2"
     inkscape:pageopacity="0.0"
     borderopacity="1.0"
     bordercolor="#666666"
     pagecolor="#ffffff"
     id="base" />
  <metadata
     id="metadata5">
    <rdf:RDF>
      <cc:Work
         rdf:about="">
        <dc:format>image/svg+xml</dc:format>
        <dc:type
           rdf:resource="http://purl.org/dc/dcmitype/StillImage" />
        <dc:title />
      </cc:Work>
    </rdf:RDF>
  </metadata>
  <g
     transform="translate(-172.39117,-40.651099)"
     id="layer1"
     inkscape:groupmode="layer"
     inkscape:label="Layer 1">
    <path
       id="path2185-8-6-0"
       style="fill:none;fill-opacity:1;stroke:#140b09;stroke-width:3;stroke-linejoin:round;stroke-miterlimit:4;stroke-dasharray:none;stroke-opacity:1"
       d="m 182.36164,42.448277 c -1.736,-0.1888 -2.9463,-0.31841 -3.8739,-0.29392 -0.9008,0.024 -1.3934,0.1925 -1.7654,0.49362 -0.3711,0.30119 -0.6408,0.75171 -0.8575,1.63305 -0.2252,0.90808 -0.3579,2.12922 -0.5483,3.87949 l -1.4133,12.99596 c 0,-0.009 0,-0.017 0,-0.0256 -0.013,0.11622 -0.014,0.23072 -0.01,0.37991 0,0.0564 0,0.11186 0.01,0.16802 0.043,0.7277 0.2208,1.12974 0.5269,1.43583 0.3071,0.30621 0.7594,0.53404 1.6401,0.72625 0.9053,0.1995 2.1215,0.33259 3.8641,0.5221 l 4.8554,0.52804 6.2657,0.69388 c 0,0 0.3833,-3.20066 0.5839,-4.38504 l 1.2107,-11.132659 c 0.1903,-1.75027 0.3232,-2.97247 0.2986,-3.90663 -0.022,-0.90843 -0.1889,-1.40531 -0.4865,-1.77922 -0.2986,-0.37404 -0.7439,-0.64454 -1.6185,-0.86162 -0.9005,-0.22348 -2.1099,-0.35684 -3.846,-0.54564 z m -7.2183,17.30494 c -0.249,0.0971 -0.4848,0.22835 -0.6997,0.39176 -0.1333,0.10524 -0.1985,0.15726 -0.3787,0.51915 -0.057,0.11416 -0.091,0.20563 -0.1162,0.29146 0.029,-0.10077 0.065,-0.19926 0.1162,-0.29146 0.1801,-0.36188 0.2458,-0.41387 0.3792,-0.51909 0.2033,-0.16084 0.4398,-0.29269 0.6997,-0.39177 z" />
  </g>
</svg>
