<?xml version="1.0" encoding="UTF-8" standalone="no"?>
<svg
   xmlns:dc="http://purl.org/dc/elements/1.1/"
   xmlns:cc="http://creativecommons.org/ns#"
   xmlns:rdf="http://www.w3.org/1999/02/22-rdf-syntax-ns#"
   xmlns:svg="http://www.w3.org/2000/svg"
   xmlns="http://www.w3.org/2000/svg"
   xmlns:sodipodi="http://sodipodi.sourceforge.net/DTD/sodipodi-0.dtd"
   xmlns:inkscape="http://www.inkscape.org/namespaces/inkscape"
   sodipodi:docname="BetterTwiterLogo.svg"
   inkscape:version="1.0 (4035a4fb49, 2020-05-01)"
   id="svg8"
   version="1.1"
   viewBox="0 0 20.662125 18.479429"
   height="18.479429mm"
   width="20.662125mm">
  <defs
     id="defs2" />
  <sodipodi:namedview
     inkscape:window-maximized="0"
     inkscape:window-y="629"
     inkscape:window-x="160"
     inkscape:window-height="1080"
     inkscape:window-width="1512"
     showgrid="false"
     inkscape:document-rotation="0"
     inkscape:current-layer="layer1"
     inkscape:document-units="mm"
     inkscape:cy="22.199728"
     inkscape:cx="-73.869311"
     inkscape:zoom="1.4"
     inkscape:pageshadow="2"
     inkscape:pageopacity="0.0"
     borderopacity="1.0"
     bordercolor="#666666"
     pagecolor="#ffffff"
     id="base" />
  <metadata
     id="metadata5">
    <rdf:RDF>
      <cc:Work
         rdf:about="">
        <dc:format>image/svg+xml</dc:format>
        <dc:type
           rdf:resource="http://purl.org/dc/dcmitype/StillImage" />
        <dc:title></dc:title>
      </cc:Work>
    </rdf:RDF>
  </metadata>
  <g
     transform="translate(-274.66299,-104.9091)"
     id="layer1"
     inkscape:groupmode="layer"
     inkscape:label="Layer 1">
    <path
       sodipodi:nodetypes="sssscsscscssscssssssssss"
       id="path940"
       d="m 280.60193,123.0698 c -4.91266,-1.1902 -7.43085,-3.83006 -3.95425,-4.1453 2.12041,-0.19227 2.25032,-0.36644 0.9271,-1.2429 -2.04926,-1.35738 -2.85083,-3.46694 -1.73957,-4.5782 l 0.52495,-0.52495 -0.86362,-1.13139 c -2.20391,-2.88729 0.25485,-4.96485 3.95838,-3.34469 0.64765,0.28332 1.15071,0.6806 1.19801,0.53869 1.25482,-3.76446 6.46358,-4.9222 9.93698,-1.94909 l 1.02444,0.87687 1.30198,-1.37665 c 1.2867,-1.3605 1.87264,-1.59389 2.29319,-0.91343 0.28743,0.46508 -0.0915,1.1596 -1.34088,2.45778 l -1.02496,1.06496 0.73713,0.16515 c 1.41675,0.3174 1.71757,0.3648 1.74348,0.81939 0.0304,0.53342 -0.79042,0.77453 -1.54905,0.62951 -0.57244,-0.10943 -0.23427,0.18363 -0.22683,2.77761 0.0193,6.72287 -6.24345,11.5006 -12.94648,9.87664 z m 4.55107,-12.79552 c 0.53957,-0.39454 0.45675,-1.14776 -0.16957,-1.54219 -0.88008,-0.55423 -1.87111,0.69467 -1.19637,1.50768 0.37953,0.45731 0.77409,0.46728 1.36594,0.0345 z"
       style="fill:#000000;stroke-width:0.254" />
  </g>
</svg>
