<?xml version="1.0" encoding="UTF-8" standalone="no"?>
<svg
   xmlns:dc="http://purl.org/dc/elements/1.1/"
   xmlns:cc="http://creativecommons.org/ns#"
   xmlns:rdf="http://www.w3.org/1999/02/22-rdf-syntax-ns#"
   xmlns:svg="http://www.w3.org/2000/svg"
   xmlns="http://www.w3.org/2000/svg"
   xmlns:sodipodi="http://sodipodi.sourceforge.net/DTD/sodipodi-0.dtd"
   xmlns:inkscape="http://www.inkscape.org/namespaces/inkscape"
   sodipodi:docname="MainMenuIcon.svg"
   inkscape:version="1.0 (4035a4fb49, 2020-05-01)"
   id="svg8"
   version="1.1"
   viewBox="0 0 20.321259 18.558559"
   height="18.558559mm"
   width="20.321259mm">
  <defs
     id="defs2" />
  <sodipodi:namedview
     inkscape:window-maximized="0"
     inkscape:window-y="629"
     inkscape:window-x="160"
     inkscape:window-height="1080"
     inkscape:window-width="1512"
     showgrid="false"
     inkscape:document-rotation="0"
     inkscape:current-layer="layer1"
     inkscape:document-units="mm"
     inkscape:cy="280.78558"
     inkscape:cx="335.54524"
     inkscape:zoom="0.35"
     inkscape:pageshadow="2"
     inkscape:pageopacity="0.0"
     borderopacity="1.0"
     bordercolor="#666666"
     pagecolor="#ffffff"
     id="base" />
  <metadata
     id="metadata5">
    <rdf:RDF>
      <cc:Work
         rdf:about="">
        <dc:format>image/svg+xml</dc:format>
        <dc:type
           rdf:resource="http://purl.org/dc/dcmitype/StillImage" />
        <dc:title></dc:title>
      </cc:Work>
    </rdf:RDF>
  </metadata>
  <g
     transform="translate(-17.053656,-73.875482)"
     id="layer1"
     inkscape:groupmode="layer"
     inkscape:label="Layer 1">
    <path
       style="fill:#0000ff;fill-opacity:1;stroke:none;stroke-width:0.264583;stroke-opacity:1"
       d="m 24.74143,92.434042 c 0.2922,0 0.5465,-0.23742 0.5291,-0.52917 l -0.3219,-5.41098 c -0.017,-0.2917 0.238,-0.5053 0.5292,-0.52916 l 3.4289,-0.28086 c 0.2912,-0.0239 0.5419,0.23721 0.5292,0.52916 l -0.2481,5.69184 c -0.013,0.29198 0.2369,0.52917 0.5291,0.52917 h 4.6729 c 0.2923,0 0.5292,-0.23691 0.5292,-0.52917 v -7.7611 c 0,-0.29226 0.2369,-0.52917 0.5292,-0.52917 h 1.3991 c 0.485,0 0.7085,-0.59149 0.354,-0.92249 l -9.2966,-8.68079 c -0.2013,-0.18112 -0.5068,-0.18112 -0.708,0 l -9.9666,8.94102 c -0.361,0.32386 -0.131,0.92249 0.354,0.92249 h 1.3991 c 0.2923,0 0.5303,0.23691 0.5292,0.52917 l -0.027,7.50087 c 0,0.29226 0.2369,0.52917 0.5291,0.52917 z"
       fill="#ffffff"
       id="path2539"
       sodipodi:nodetypes="ssssssssssssssccsssssss" />
  </g>
</svg>
