<?xml version="1.0" encoding="UTF-8" standalone="no"?>
<svg
   xmlns:dc="http://purl.org/dc/elements/1.1/"
   xmlns:cc="http://creativecommons.org/ns#"
   xmlns:rdf="http://www.w3.org/1999/02/22-rdf-syntax-ns#"
   xmlns:svg="http://www.w3.org/2000/svg"
   xmlns="http://www.w3.org/2000/svg"
   xmlns:sodipodi="http://sodipodi.sourceforge.net/DTD/sodipodi-0.dtd"
   xmlns:inkscape="http://www.inkscape.org/namespaces/inkscape"
   sodipodi:docname="MeDrawMe_iwtkms.svg"
   inkscape:version="1.0 (4035a4fb49, 2020-05-01)"
   id="svg8"
   version="1.1"
   viewBox="0 0 64.919388 73.967308"
   height="73.967308mm"
   width="64.919388mm">
  <defs
     id="defs2" />
  <sodipodi:namedview
     inkscape:window-maximized="0"
     inkscape:window-y="629"
     inkscape:window-x="96"
     inkscape:window-height="1080"
     inkscape:window-width="1512"
     showgrid="false"
     inkscape:document-rotation="0"
     inkscape:current-layer="layer1"
     inkscape:document-units="mm"
     inkscape:cy="259.78075"
     inkscape:cx="-654.46056"
     inkscape:zoom="0.35"
     inkscape:pageshadow="2"
     inkscape:pageopacity="0.0"
     borderopacity="1.0"
     bordercolor="#666666"
     pagecolor="#ffffff"
     id="base" />
  <metadata
     id="metadata5">
    <rdf:RDF>
      <cc:Work
         rdf:about="">
        <dc:format>image/svg+xml</dc:format>
        <dc:type
           rdf:resource="http://purl.org/dc/dcmitype/StillImage" />
        <dc:title></dc:title>
      </cc:Work>
    </rdf:RDF>
  </metadata>
  <g
     transform="translate(-278.99269,-79.43301)"
     id="layer1"
     inkscape:groupmode="layer"
     inkscape:label="Layer 1">
    <path
       style="fill:#000000;fill-opacity:1;stroke-width:0.254"
       d="m 313.17347,153.18709 c 0,-0.11728 -0.25718,-0.33084 -0.5715,-0.47459 -0.73472,-0.336 -7.02571,-5.08431 -7.64929,-5.77352 -1.51108,-1.67013 -2.02678,-3.78094 -1.78421,-7.30291 0.0944,-1.37046 0.10391,-2.49175 0.0211,-2.49175 -0.22039,0 -2.46214,3.19246 -2.46214,3.50632 0,0.38446 -1.26002,1.31968 -1.778,1.31968 -0.24172,0 -0.74066,-0.2369 -1.10875,-0.52644 -0.97456,-0.76659 -0.92649,-2.26965 0.12578,-3.93233 0.86881,-1.37281 3.78155,-4.96149 4.79297,-5.90524 0.39341,-0.36709 0.52381,-0.63912 0.34276,-0.715 -0.16073,-0.0674 -1.32644,-0.80381 -2.59047,-1.63654 l -2.29822,-1.51405 -1.98154,0.53315 c -2.44903,0.65894 -3.40587,0.98297 -6.27976,2.12661 -1.24643,0.49601 -2.67518,0.90141 -3.175,0.90089 -1.22977,-0.001 -2.50988,-0.8336 -2.96784,-1.92965 -0.34503,-0.82577 -0.33153,-1.08198 0.15689,-2.97894 0.29392,-1.1415 1.27077,-3.92054 2.17078,-6.17564 0.90002,-2.2551 1.6364,-4.31489 1.6364,-4.57731 0,-0.64148 -1.99274,-3.96392 -3.34971,-5.58489 -0.60241,-0.7196 -1.95254,-2.27336 -3.00029,-3.45279 -2.75106,-3.0968 -3.11269,-4.77856 -1.3595,-6.32234 1.33079,-1.171837 6.83863,-3.300068 13.0435,-5.040008 3.15963,-0.88601 6.74009,-1.33248 9.92926,-1.23814 2.71691,0.0804 3.04553,0.0433 3.17277,-0.35759 0.20786,-0.65493 7.5183,-5.39154 12.42497,-8.05043 1.1176,-0.60563 2.66065,-1.46892 3.429,-1.91843 1.54101,-0.90154 3.8295,-2.14545 6.33465,-3.44318 2.44849,-1.26839 3.76523,-1.05452 5.18077,0.84145 0.45418,0.60831 0.47198,0.80734 0.20303,2.2703 -0.85839,4.66926 -1.07926,7.05798 -0.9703,10.49354 0.16047,5.0595 0.20008,5.14568 2.83486,6.167198 2.49269,0.96643 5.74707,2.81415 6.91048,3.92354 0.44468,0.42403 0.95254,1.12742 1.12858,1.56311 0.17579,1.12688 0.24625,0.7846 0.22191,1.91923 0,0.89282 -1.60709,2.12233 -5.1714,3.95643 -0.53923,0.27747 -1.51078,1.13314 -2.159,1.90149 -0.64823,0.76835 -1.24791,1.45415 -1.33263,1.524 -0.0847,0.0699 -0.21551,0.86995 -0.29065,1.778 -0.15665,1.89308 -0.65144,3.49668 -1.79815,5.82783 -1.00222,2.0374 -4.0418,5.21758 -6.07566,6.35668 -0.80327,0.44988 -1.52187,0.91727 -1.59687,1.03863 -0.075,0.12136 0.35361,0.52753 0.95249,0.9026 0.59888,0.37507 1.59481,1.18439 2.21318,1.79849 2.50681,2.4895 2.86553,3.62 1.56223,4.92331 -1.23986,1.23985 -2.07114,0.99084 -4.49183,-1.34555 l -1.29729,-1.25212 -0.13375,3.51157 c -0.0736,1.93135 -0.17559,3.65615 -0.22672,3.83287 -0.0576,0.199 0.53553,0.54512 1.55805,0.90924 2.15939,0.76895 3.03898,1.24094 4.01947,2.15685 1.63274,1.52521 0.72802,3.8516 -1.49788,3.8516 -1.14619,0 -4.90659,-1.55397 -6.7301,-2.78119 -0.94989,-0.63927 -1.1451,-0.67808 -2.41299,-0.47975 -0.75873,0.11869 -2.37963,0.34485 -3.602,0.50259 -1.22238,0.15774 -2.2225,0.37792 -2.2225,0.48928 0,0.11136 0.35306,0.45388 0.78458,0.76115 1.10186,0.78459 2.26342,2.47221 2.26342,3.2885 0,0.92919 -1.51856,2.53742 -2.39595,2.53742 -0.35863,0 -0.65205,-0.096 -0.65205,-0.21323 z m -0.635,-11.12492 c 1.397,-0.20746 3.52538,-0.33565 4.72973,-0.28487 l 2.18974,0.0923 0.42125,-2.93416 c 0.61095,-4.25538 0.87341,-6.97388 0.6919,-7.16644 -0.0872,-0.0925 -1.18732,0.0601 -2.44462,0.33927 -1.89573,0.42089 -2.98052,0.49188 -6.3541,0.41586 l -4.06809,-0.0917 0.071,4.95941 c 0.039,2.72768 0.0695,5.08695 0.0676,5.24281 -0.002,0.20169 0.30787,0.21438 1.07612,0.044 0.59372,-0.13166 2.2225,-0.40911 3.6195,-0.61657 z m 3.97244,-15.21936 c 7.65495,-1.42571 11.87525,-4.86858 12.93788,-10.55458 0.25812,-1.38116 0.25044,-1.96471 -0.0433,-3.28876 -0.19638,-0.88531 -0.52851,-1.81451 -0.73806,-2.06488 -0.25061,-0.29942 -1.25995,-0.6263 -2.94923,-0.95511 -1.41253,-0.27494 -3.97783,-0.89754 -5.70068,-1.38355 l -3.13245,-0.88366 -0.57369,0.61902 c -0.31553,0.34047 -0.79309,0.61903 -1.06123,0.61903 -0.757,0 -4.12259,-2.31624 -5.28588,-3.63782 -0.57524,-0.6535 -1.14578,-1.18775 -1.26786,-1.18723 -0.29814,0.001 -2.25446,2.46957 -3.86528,4.87685 -1.89021,2.8248 -2.37613,3.2502 -3.71261,3.2502 -1.03095,0 -1.173,0.0861 -1.99881,1.21105 -0.48895,0.66607 -1.12733,1.42674 -1.41864,1.69036 -0.30216,0.27346 -0.52964,0.79198 -0.52964,1.2073 0,1.01871 1.38369,3.74466 2.76995,5.45695 3.43063,4.23749 10.03814,6.24127 16.56949,5.02483 z m 3.18189,-4.59983 c -0.25547,-0.25546 -0.20318,-2.57376 0.0618,-2.7375 0.44622,-0.27578 1.03892,0.17355 1.03892,0.78763 0,0.54003 -0.63577,2.11921 -0.85319,2.11921 -0.043,0 -0.15435,-0.0762 -0.24748,-0.16934 z m -1.5537,-0.91016 c -0.29168,-0.94086 -0.28694,-1.74084 0.0118,-1.98876 0.54719,-0.45412 0.8646,-0.0216 0.8646,1.17825 0,0.84361 -0.0981,1.12801 -0.38897,1.12801 -0.21394,0 -0.43327,-0.14288 -0.4874,-0.3175 z m -1.86694,-0.25642 c -0.15587,-0.18781 -0.19105,-0.68605 -0.0852,-1.2065 0.13247,-0.65133 0.32947,-0.90812 0.74241,-0.96775 0.50828,-0.0734 0.5621,0.0274 0.5621,1.05233 0,0.79928 -0.11846,1.17895 -0.40178,1.28766 -0.52561,0.2017 -0.50994,0.20487 -0.81753,-0.16574 z m -1.85736,-6.21115 c -0.22542,-0.0895 -0.20587,-0.40693 -0.11201,-0.5588 0.2515,-0.40693 0.92343,-0.33609 1.46553,0.15451 0.13999,0.12669 0.17891,0.32117 0.25601,0.45996 0.0694,0.1249 0.91881,-0.14944 1.92299,-0.32201 1.39098,-0.23905 1.76672,-0.22947 2.04999,0.0523 0.51302,0.51025 -0.50135,1.07342 -2.33283,1.29512 -0.83138,0.10064 -1.53544,0.1634 -1.63746,0.27529 -0.0678,0.0743 -0.0675,0.2508 -0.13814,0.38018 -0.148,0.27126 -0.49872,0.47655 -0.74451,0.47655 -0.34813,0 -0.70647,-0.28748 -0.4469,-0.70916 0.25957,-0.42168 0.28306,-0.27836 0.27278,-0.82829 -0.0659,-0.38306 -0.33003,-0.58619 -0.55545,-0.67565 z m -11.28588,0.82761 c -0.86639,-0.86639 -0.86639,-2.4587 0,-3.32509 0.3429,-0.3429 0.72399,-0.59649 1.016,-0.62345 0.29201,-0.027 1.08534,-0.0906 1.5114,0.0556 0.61299,0.21031 0.91487,0.70122 1.17651,1.23703 0.9384,2.2655 -1.99262,4.36723 -3.70391,2.65594 z m 20.09195,-1.21106 c -0.21747,-0.31048 -0.3954,-0.7994 -0.3954,-1.08648 0,-0.6602 0.68188,-1.651 1.13623,-1.651 0.82545,-0.60653 2.14163,0.5065 2.24672,1.36075 0,0.20914 -0.0639,0.9039 -0.35339,1.27199 -0.68945,0.8765 -2.05555,0.93082 -2.63416,0.10474 z m -29.00811,8.42475 c 0.78909,-0.17659 1.43471,-0.39022 1.43471,-0.47474 0,-0.0845 -0.2286,-0.77909 -0.508,-1.54349 -0.76679,-2.09785 -0.59296,-4.98623 0.45094,-7.493 0.40051,-0.96177 1.18679,-1.905 1.58802,-1.905 0.16886,0 2.16652,-3.23553 3.03099,-4.90917 0.45469,-0.88031 1.13914,-1.27299 1.94899,-1.11817 0.51226,0.0979 0.87875,-0.20541 2.2484,-1.86094 3.25792,-3.937918 4.5388,-4.252308 5.8474,-1.43524 0.24616,0.52991 0.95903,1.38259 1.58417,1.89484 l 1.13661,0.93137 0.50142,-0.68835 c 0.59258,-0.81347 1.57564,-0.90107 3.28462,-0.29267 1.72733,0.61492 6.40024,1.84064 9.62044,2.52346 3.90009,0.827 4.64684,1.05783 5.43975,1.68153 l 0.67254,0.52902 1.10939,-0.97734 c 0.61017,-0.53754 1.37281,-1.1601 1.69476,-1.38348 0.57535,-0.39919 0.53014,-0.43328 -2.64076,-1.99095 -3.25183,-1.59743 -4.24368,-2.40313 -4.24368,-3.44723 0,-0.31285 -0.19926,-1.068958 -0.4428,-1.680248 -0.37594,-0.94363 -0.44226,-1.98383 -0.43928,-6.88993 0.002,-3.17818 -0.0617,-5.7785 -0.1414,-5.7785 -0.0797,0 -0.25351,0.0977 -0.38622,0.21722 -0.31317,0.28192 -3.64989,2.05213 -9.5123,5.04652 -3.26195,1.66613 -4.97088,2.69327 -5.588,3.35864 -0.48895,0.52718 -1.61763,1.56966 -2.50817,2.31662 -1.41581,1.18756 -1.76814,1.36285 -2.80544,1.39577 -0.65246,0.0207 -1.43079,0.1685 -1.72964,0.32843 -0.29884,0.15994 -1.21654,0.2908 -2.03931,0.2908 -1.74676,0 -6.13118,0.622018 -8.01921,1.137688 -3.67566,1.00392 -3.39445,0.91537 -6.52023,2.0533 -1.04775,0.38143 -1.9479,0.72917 -2.00033,0.77276 -0.0524,0.0436 0.47384,0.85549 1.1695,1.80425 2.88376,3.93293 5.0578,8.49222 4.93101,10.34106 -0.045,0.65621 -1.73077,6.23734 -2.31915,7.6781 -0.32789,0.80288 -0.10619,0.85897 1.37758,0.34848 0.73588,-0.25318 1.98359,-0.60482 2.77268,-0.78141 z"
       id="path1156"
       sodipodi:nodetypes="cssssssssssscsscssssssssssssssssssccsscssssssssccssssssssssscccscsssscccsccsssssscssscsssssssssssssssssssssssssszssssssssszczszscsssscsssssssssssscsssscssssscscssssssssssssssss" />
  </g>
</svg>
