<?xml version="1.0" encoding="UTF-8" standalone="no"?>
<svg
   xmlns:dc="http://purl.org/dc/elements/1.1/"
   xmlns:cc="http://creativecommons.org/ns#"
   xmlns:rdf="http://www.w3.org/1999/02/22-rdf-syntax-ns#"
   xmlns:svg="http://www.w3.org/2000/svg"
   xmlns="http://www.w3.org/2000/svg"
   xmlns:sodipodi="http://sodipodi.sourceforge.net/DTD/sodipodi-0.dtd"
   xmlns:inkscape="http://www.inkscape.org/namespaces/inkscape"
   width="25.153479mm"
   height="27.386097mm"
   viewBox="0 0 25.153479 27.386097"
   version="1.1"
   id="svg8"
   inkscape:version="1.0 (4035a4fb49, 2020-05-01)"
   sodipodi:docname="palette.svg">
  <defs
     id="defs2" />
  <sodipodi:namedview
     id="base"
     pagecolor="#ffffff"
     bordercolor="#666666"
     borderopacity="1.0"
     inkscape:pageopacity="0.0"
     inkscape:pageshadow="2"
     inkscape:zoom="1.4"
     inkscape:cx="74.79195"
     inkscape:cy="107.45486"
     inkscape:document-units="mm"
     inkscape:current-layer="layer1"
     inkscape:document-rotation="0"
     showgrid="false"
     inkscape:window-width="1512"
     inkscape:window-height="1080"
     inkscape:window-x="32"
     inkscape:window-y="629"
     inkscape:window-maximized="0" />
  <metadata
     id="metadata5">
    <rdf:RDF>
      <cc:Work
         rdf:about="">
        <dc:format>image/svg+xml</dc:format>
        <dc:type
           rdf:resource="http://purl.org/dc/dcmitype/StillImage" />
        <dc:title />
      </cc:Work>
    </rdf:RDF>
  </metadata>
  <g
     inkscape:label="Layer 1"
     inkscape:groupmode="layer"
     id="layer1"
     transform="translate(-126.5185,-120.86648)">
    <path
       d="m 130.00163,123.70248 a 0.65074753,0.65074753 0 0 0 -0.61495,0.50812 c -0.4328,1.94399 -0.33297,3.96887 0.28912,5.86068 0.47103,1.43177 1.2322,2.7441 2.22397,3.86588 -1.52235,3.68698 0.2352,8.16665 4.14892,10.36252 2.02232,1.13444 4.41227,1.41933 6.64425,0.7917 2.2319,-0.62766 4.12306,-2.11635 5.25749,-4.13837 1.13443,-2.02204 1.41895,-4.41181 0.79147,-6.64376 -0.311,-1.10514 -0.83635,-2.13809 -1.5463,-3.04018 -0.71003,-0.90209 -1.59055,-1.65559 -2.59175,-2.21731 -0.33361,-0.18715 -0.69068,-0.28007 -1.04007,-0.28521 -0.76871,-0.0113 -1.49927,0.40138 -1.85889,1.1646 -0.257,0.45742 -0.36064,1.00038 -0.26961,1.55266 -0.0428,0.0762 -0.0103,0.19548 -0.0523,0.27168 -0.12824,0.22871 -0.36636,0.29551 -0.59506,0.1672 l -1.37231,-0.77 c -1.11072,-0.62315 -2.40628,-0.81762 -3.64498,-0.55729 -0.26732,-0.9707 -0.66214,-1.90589 -1.18709,-2.77586 -1.02888,-1.70525 -2.49778,-3.10228 -4.25382,-4.04125 a 0.65074753,0.65074753 0 0 0 -0.0547,-0.0258 v 0 a 0.65074753,0.65074753 0 0 0 -0.27302,-0.0508 z m 0.56587,1.83746 c 1.15267,0.7873 2.17719,1.74866 2.90244,2.95082 0.26002,0.43086 0.48387,0.88029 0.67292,1.34245 -0.96497,0.19969 -1.87197,0.61626 -2.65242,1.21787 -0.22703,-0.44473 -0.42131,-0.90754 -0.57863,-1.38548 -0.43875,-1.33386 -0.4987,-2.73831 -0.34431,-4.12566 z m 12.92579,4.97269 c 0.0821,-0.005 0.16914,0.0158 0.25494,0.0639 1.61743,0.90754 2.80847,2.42043 3.31058,4.20599 0.50204,1.78557 0.27437,3.69763 -0.63319,5.31527 -0.90748,1.61761 -2.42039,2.80851 -4.20585,3.31062 -1.7857,0.50208 -3.6974,0.27403 -5.31522,-0.63352 -1.73495,-0.97332 -2.94891,-2.48759 -3.48853,-4.13388 0.25708,0.19699 0.54319,0.35634 0.84975,0.47003 l 1.01231,0.37534 c 0.10404,0.28746 0.30149,0.54074 0.5757,0.69459 0.60995,0.34218 1.44305,0.10793 1.78546,-0.50198 0.12553,-0.22355 0.17271,-0.47691 0.1532,-0.7253 l 0.65357,-1.76208 c 0.22338,-0.60332 0.26327,-1.25947 0.11387,-1.88539 -0.14892,-0.62584 -0.47959,-1.19295 -0.95149,-1.63052 -0.41076,-0.38097 -0.9116,-0.64858 -1.45392,-0.77857 -0.0103,-0.19471 -0.0301,-0.38854 -0.0515,-0.58189 0.83397,-0.18225 1.70807,-0.0577 2.45663,0.36224 l 1.2962,0.72736 c 1.06734,0.59881 2.3767,0.2306 2.97547,-0.83678 0.25621,-0.45744 0.31791,-0.92414 0.22703,-1.47643 0.0428,-0.0762 0.009,-0.19542 0.0946,-0.34791 0.0802,-0.14294 0.20332,-0.22277 0.34011,-0.2311 z m -8.93483,0.56713 c 0.15042,0.58033 0.24796,1.17478 0.28975,1.77598 -0.27826,0.0473 -0.55033,0.12908 -0.80947,0.24793 -0.2593,0.11902 -0.49894,0.27275 -0.71629,0.45281 -0.4286,-0.42375 -0.81526,-0.88554 -1.15703,-1.3781 0.69044,-0.56598 1.51371,-0.94378 2.39304,-1.09862 z m 0.83841,3.02949 a 0.65068247,0.65068247 0 0 0 0.13195,0.0124 0.65068247,0.65068247 0 0 0 0.0603,-0.003 c 0.0389,0.004 0.0777,0.008 0.11689,0.0147 0.14289,0.0229 0.28261,0.0614 0.41583,0.11475 0.22116,0.0889 0.42591,0.21774 0.60235,0.38149 0.28301,0.26258 0.4807,0.60385 0.57006,0.97938 0.0896,0.37568 0.0666,0.76849 -0.0674,1.13059 l -0.67831,1.83007 -1.83034,-0.67818 c -0.36191,-0.13429 -0.67728,-0.37325 -0.90367,-0.68597 -0.22632,-0.31271 -0.35494,-0.68477 -0.36969,-1.07075 -0.0143,-0.3858 0.0867,-0.76687 0.28896,-1.09576 0.0238,-0.0357 0.046,-0.0714 0.0706,-0.10572 a 0.65068247,0.65068247 0 0 0 0.0365,-0.0373 0.65068247,0.65068247 0 0 0 0.0722,-0.10163 c 0.18301,-0.2147 0.4106,-0.38865 0.66911,-0.50732 0.2566,-0.11778 0.53478,-0.17726 0.8147,-0.17743 z m 8.93522,3.99865 c -0.46722,0 -0.93467,0.24084 -1.16987,0.66015 -0.34217,0.60992 -0.108,1.44284 0.50187,1.78501 0.61012,0.34217 1.44282,0.10794 1.78507,-0.50199 0.34216,-0.60991 0.10784,-1.4428 -0.50227,-1.785 -0.19055,-0.10694 -0.40244,-0.15769 -0.6148,-0.15817 z m -3.99825,1.76656 c -0.46722,0 -0.93468,0.24041 -1.16987,0.65976 -0.34225,0.60991 -0.10808,1.44322 0.50203,1.7854 0.60995,0.3422 1.44281,0.10794 1.78506,-0.50196 0.34217,-0.60996 0.10785,-1.44323 -0.50211,-1.78543 -0.19071,-0.10693 -0.40283,-0.15727 -0.61511,-0.15777 z"
       style="fill:#0000ff;fill-opacity:1;stroke-width:0.209807"
       id="path2156-7-4" />
  </g>
</svg>
