<?xml version="1.0" encoding="UTF-8" standalone="no"?>
<svg
   xmlns:dc="http://purl.org/dc/elements/1.1/"
   xmlns:cc="http://creativecommons.org/ns#"
   xmlns:rdf="http://www.w3.org/1999/02/22-rdf-syntax-ns#"
   xmlns:svg="http://www.w3.org/2000/svg"
   xmlns="http://www.w3.org/2000/svg"
   xmlns:sodipodi="http://sodipodi.sourceforge.net/DTD/sodipodi-0.dtd"
   xmlns:inkscape="http://www.inkscape.org/namespaces/inkscape"
   width="15.06949mm"
   height="21.209238mm"
   viewBox="0 0 15.06949 21.209238"
   version="1.1"
   id="svg8"
   inkscape:version="1.0 (4035a4fb49, 2020-05-01)"
   sodipodi:docname="TutoBnt.svg">
  <defs
     id="defs2" />
  <sodipodi:namedview
     id="base"
     pagecolor="#ffffff"
     bordercolor="#666666"
     borderopacity="1.0"
     inkscape:pageopacity="0.0"
     inkscape:pageshadow="2"
     inkscape:zoom="2.676926"
     inkscape:cx="9.1259345"
     inkscape:cy="55.590198"
     inkscape:document-units="mm"
     inkscape:current-layer="layer1"
     inkscape:document-rotation="0"
     showgrid="false"
     inkscape:window-width="1759"
     inkscape:window-height="1051"
     inkscape:window-x="-9"
     inkscape:window-y="620"
     inkscape:window-maximized="1" />
  <metadata
     id="metadata5">
    <rdf:RDF>
      <cc:Work
         rdf:about="">
        <dc:format>image/svg+xml</dc:format>
        <dc:type
           rdf:resource="http://purl.org/dc/dcmitype/StillImage" />
        <dc:title />
      </cc:Work>
    </rdf:RDF>
  </metadata>
  <g
     inkscape:label="Layer 1"
     inkscape:groupmode="layer"
     id="layer1"
     transform="translate(-42.633519,48.319742)">
    <path
       d="m 45.524966,-34.952533 c 0,0.689871 0.137974,1.333751 0.597888,1.885648 0.574892,0.735862 1.609699,0.942824 2.437544,0.505905 0.735862,-0.390927 0.919828,-1.080798 0.597888,-1.931639 -0.942823,-1.540712 2.253579,-2.414548 3.058428,-2.690497 2.529528,-0.827845 5.128042,-2.644505 4.093235,-5.725929 -0.873836,-2.552523 -4.369183,-3.886274 -6.921706,-3.771295 -1.563707,0.06899 -3.081424,0.528901 -4.461166,1.287759 -2.506531,1.011811 -0.344935,4.208213 1.563708,2.736489 1.103794,-0.80485 2.46054,-1.12679 3.794291,-0.988816 2.874462,0.275949 3.863277,2.759485 0.252952,3.794291 -2.322565,0.758858 -4.668127,2.000626 -5.013062,4.898084 z m 2.161595,6.20884 c 1.034807,0.023 1.747674,-0.597889 1.747674,-1.44873 -0.023,-0.827845 -0.827846,-1.563707 -1.793665,-1.540711 -0.942824,0 -1.747673,0.643879 -1.724678,1.517716 0,0.850841 0.758859,1.471725 1.770669,1.471725 z"
       style="font-style:normal;font-variant:normal;font-weight:normal;font-stretch:normal;font-size:22.9957px;line-height:1.25;font-family:'Om Botak';-inkscape-font-specification:'Om Botak';text-align:center;text-anchor:middle;fill:#020001;fill-opacity:1;stroke:none;stroke-width:0.574893;stroke-opacity:1"
       id="path835" />
  </g>
</svg>
